# Blender v2.76 (sub 0) OBJ File: ''
# www.blender.org
mtllib testModelTex.mtl
o Cube.001
v 1.000000 -1.000000 1.000000
v -1.000000 -1.000000 1.000000
v -1.000000 -1.000000 0.749359
v 0.999999 1.417727 0.749359
v -1.000000 1.417727 0.749359
v -1.000000 1.000000 1.000000
v 1.000000 0.825471 0.749359
v 0.999999 1.000000 1.000001
v -1.000000 0.510071 1.000000
v -1.000000 0.585099 -0.583862
v -1.000000 1.099369 -0.583862
v -1.000000 1.000000 -1.000000
v 1.000000 -1.000000 -1.000000
v -1.000000 -1.000000 -1.000000
v -1.000000 -0.322064 -1.000000
v -1.000000 0.825471 0.749359
v 1.000000 1.341662 0.430814
v -1.000000 1.341662 0.430814
v 1.000000 -1.000000 0.749359
v -1.000000 -1.000000 0.430814
v 1.000000 -1.000000 -0.583862
v -1.000000 -1.000000 -0.583862
v 1.000000 1.099369 -0.583861
v 1.000000 1.000000 -0.999999
v 1.000000 0.585099 -0.583861
v -1.000000 0.586881 -0.573977
v -1.000000 1.101730 -0.573977
v 1.000000 -1.000000 0.430814
v -1.000000 -1.000000 0.414128
v -1.000000 1.337678 0.414128
v 1.000000 1.337678 0.414129
v 1.000000 0.768039 0.430814
v 1.000000 0.765030 0.414129
v 1.000000 0.748942 0.430814
v -1.000000 0.805754 0.749359
v -1.000000 0.768039 0.430814
v -1.000000 0.567978 -0.583862
v 1.000000 0.510071 -1.000000
v 1.000000 0.567978 -0.583861
v 1.000000 0.805754 0.749359
v -1.000000 0.510071 -1.000000
v 0.999999 0.510071 1.000000
v -1.000000 0.493761 1.000000
v 1.000000 -0.180468 0.749359
v 1.000000 -0.322064 1.000000
v -1.000000 -0.322064 1.000000
v -1.000000 -0.288381 -0.583862
v -1.000000 -0.180468 0.749359
v 1.000000 -0.206252 0.430814
v 1.000000 -0.322064 -1.000000
v 1.000000 -0.288381 -0.583862
v -1.000000 -1.000000 -0.573977
v -1.000000 -0.287581 -0.573977
v -1.000000 -0.206252 0.430814
v 1.000000 -0.207602 0.414129
v -1.000000 -0.298238 -1.000000
v 1.000000 0.493761 -1.000000
v -1.000000 0.493761 -1.000000
v 1.000000 -0.151665 0.749359
v 0.999999 0.493761 1.000000
v -1.000000 -0.298238 1.000000
v -1.000000 -0.263371 -0.583862
v -1.000000 -0.151665 0.749359
v 1.000000 -0.263371 -0.583862
v -1.055623 -0.262543 -0.573977
v -1.055623 0.569741 -0.573977
v -1.000000 0.748942 0.430814
v 0.898203 0.745966 0.414129
v 1.000000 -0.178355 0.430814
v 0.898203 -0.179753 0.414129
v -1.000000 -0.178355 0.430814
v 1.000000 -0.298238 -1.000000
v 1.000000 -0.298238 1.000000
v -1.055623 -0.179753 0.414128
v -1.000000 -0.207602 0.414128
v 0.898204 -0.262543 -0.573977
v 0.898204 0.569741 -0.573977
v -1.055623 0.745966 0.414128
v 1.000000 -0.287581 -0.573977
v 1.000000 -1.000000 0.414129
v -1.000000 0.765030 0.414128
v 1.000000 0.586881 -0.573977
v 1.000000 1.101730 -0.573976
v 1.000000 -1.000000 -0.573977
vt 0.333003 0.805182
vt 0.000000 0.805406
vt 0.000000 0.759789
vt 0.333003 0.441179
vt 0.000000 0.441179
vt 0.000988 0.363999
vt 0.625351 0.107825
vt 0.625351 0.000000
vt 0.667096 0.076050
vt 0.333991 0.363999
vt 0.000937 0.274832
vt 0.597787 0.591752
vt 0.597787 0.498125
vt 0.667096 0.516216
vt 1.000000 0.000153
vt 1.000000 0.364242
vt 0.887156 0.364190
vt 0.333991 0.516216
vt 0.375736 0.440166
vt 0.375736 0.547990
vt 0.572297 0.013848
vt 0.911998 0.364303
vt 0.966521 0.364317
vt 0.966521 0.728421
vt 0.333003 0.759565
vt 0.000000 0.701814
vt 0.333003 0.516917
vt 0.000000 0.517141
vt 0.000000 0.441404
vt 0.667096 0.364242
vt 0.738323 0.364260
vt 0.738324 0.728364
vt 0.333991 0.076051
vt 0.403300 0.057960
vt 0.403300 0.151586
vt 0.596141 0.591428
vt 0.596141 0.497695
vt 0.428790 0.454014
vt 0.333003 0.701589
vt 0.000000 0.698777
vt 0.909142 0.364303
vt 0.911998 0.728407
vt 0.569518 0.014574
vt 0.572297 0.118281
vt 0.569518 0.118828
vt 0.572297 0.121757
vt 0.375736 0.551580
vt 0.428790 0.558446
vt 0.597787 0.594869
vt 0.333991 0.165246
vt 0.403300 0.154703
vt 0.625351 0.111414
vt 0.333991 0.605411
vt 0.748646 0.000038
vt 0.748646 0.364126
vt 0.667096 0.364089
vt 0.667096 0.605411
vt 0.333940 0.274832
vt 0.000935 0.271863
vt 0.667096 0.165246
vt 0.625351 0.440166
vt 0.625351 0.290964
vt 0.667096 0.316742
vt 0.333854 0.123384
vt 0.000850 0.123384
vt 0.000780 0.000000
vt 0.597787 0.880331
vt 0.597787 0.750776
vt 0.667096 0.756908
vt 0.333991 0.756908
vt 0.375736 0.731129
vt 0.375736 0.880331
vt 0.572297 0.295658
vt 0.333991 0.316742
vt 0.403300 0.310610
vt 0.403300 0.440166
vt 0.596141 0.880331
vt 0.596141 0.750630
vt 0.428790 0.735824
vt 0.569518 0.295904
vt 0.572297 0.440166
vt 0.887156 0.000101
vt 0.883190 0.364188
vt 0.751361 0.000039
vt 0.751361 0.364127
vt 0.625351 0.285720
vt 0.667096 0.168215
vt 0.333938 0.271864
vt 0.000853 0.127720
vt 0.597787 0.746222
vt 0.667096 0.608381
vt 0.333991 0.608381
vt 0.375736 0.725886
vt 0.333991 0.168215
vt 0.403300 0.306057
vt 0.170592 0.959961
vt 0.170592 0.808529
vt 0.179875 0.808908
vt 0.428790 0.561923
vt 0.854719 0.729071
vt 0.871639 0.728421
vt 0.871607 0.897140
vt 0.871639 0.902567
vt 0.854687 0.897504
vt 0.428790 0.730745
vt 0.179855 0.964512
vt 0.179875 0.960170
vt 0.333991 0.312405
vt 0.572297 0.290579
vt 0.333991 0.752570
vt 0.667096 0.752570
vt 0.333856 0.127720
vt 0.667096 0.312404
vt 0.883190 0.000100
vt 0.880928 0.900193
vt 0.890258 0.900377
vt 0.880996 0.905439
vt 0.854687 0.729368
vt 0.854687 0.908555
vt 0.837769 0.907503
vt 0.682604 0.910363
vt 0.667096 0.728421
vt 0.820739 0.742492
vt 0.880928 0.731425
vt 0.890258 0.731897
vt 0.404946 0.310464
vt 0.569518 0.440166
vt 0.428790 0.880331
vt 0.431570 0.736069
vt 0.431570 0.558994
vt 0.820747 0.912030
vt 0.820739 0.731384
vt 0.837766 0.731541
vt 0.404946 0.057530
vt 0.740016 0.728364
vt 0.740015 0.364260
vt 0.333003 0.518716
vt 0.333003 0.698552
vt 0.431570 0.454739
vt 0.000000 0.518941
vt 0.404946 0.151262
vt 0.404946 0.440166
vt 0.153683 0.808801
vt 0.153683 0.960106
vt 0.153642 0.964557
vt 0.890269 0.728532
vt 0.899416 0.728421
vt 0.899416 0.908633
vt 0.153642 0.985928
vt 0.000000 1.000000
vt 0.015507 0.818057
vt 0.431570 0.880331
vt 0.871639 0.729126
vt 0.880928 0.728421
vt 0.880928 0.911147
vt 0.667096 0.728346
vt 0.909142 0.728406
vt 0.820817 0.728421
vt 0.179855 0.805406
vt 0.667096 0.000000
vt 0.667096 0.440166
vt 0.333783 0.000000
vt 0.667096 0.880331
vt 0.333991 0.880331
vt 0.333991 0.440166
vt 0.837766 0.728421
vt 0.820739 0.923015
vt 0.880996 0.728421
vt 0.837766 0.912178
vt 0.153642 0.805406
vt 0.890258 0.908732
vt 0.871642 0.911781
vn 0.000000 -1.000000 0.000000
vn -0.000000 0.514500 0.857500
vn 1.000000 0.000000 0.000000
vn -0.000000 -0.000000 1.000000
vn -1.000000 0.000000 0.000000
vn 0.000000 0.000000 -1.000000
vn 0.000000 0.972700 -0.232200
vn 0.000000 0.972700 -0.232300
vn 0.000000 0.972600 -0.232300
vn -0.175000 0.000000 -0.984600
vn 0.161700 0.000000 -0.986800
vn 0.134300 0.491000 -0.860700
vn -0.167700 -0.372700 -0.912700
vn -0.240800 -0.481000 0.843000
vn 0.263000 0.961400 -0.080600
vn -0.287300 -0.000000 0.957800
vn 0.181300 -0.967800 0.174500
vn 0.096600 -0.000000 0.995300
vn 0.096700 -0.000000 0.995300
vn 0.092600 0.376400 0.921800
vn -0.446400 -0.891700 0.074700
vn -0.319600 0.932500 -0.168100
vn 0.133600 -0.713400 -0.687900
vn -0.141400 0.458700 -0.877300
vn 0.238100 0.968100 -0.078400
vn -0.239500 0.698900 0.673900
vn 0.163500 -0.971200 0.173200
vn 0.077800 -0.462000 0.883500
vn -0.409400 -0.909400 0.073600
vn -0.290300 0.942100 -0.168000
usemtl Material.001
s 1
f 1/1/1 2/2/1 3/3/1
f 4/4/2 5/5/2 6/6/2
f 7/7/3 4/8/3 8/9/3
f 8/10/4 6/6/4 9/11/4
f 10/12/5 11/13/5 12/14/5
f 13/15/6 14/16/6 15/17/6
f 6/18/5 5/19/5 16/20/5
f 17/21/3 4/8/3 7/7/3
f 18/22/7 5/23/8 4/24/8
f 19/25/1 3/3/1 20/26/1
f 21/27/1 22/28/1 14/29/1
f 12/30/8 11/31/9 23/32/9
f 24/33/3 23/34/3 25/35/3
f 26/36/5 27/37/5 11/13/5
f 16/20/5 5/19/5 18/38/5
f 28/39/1 20/26/1 29/40/1
f 30/41/7 18/22/7 17/42/8
f 31/43/3 17/21/3 32/44/3
f 33/45/3 32/44/3 34/46/3
f 35/47/5 16/20/5 36/48/5
f 26/36/5 10/12/5 37/49/5
f 38/50/3 25/35/3 39/51/3
f 32/44/3 7/7/3 40/52/3
f 9/53/5 16/20/5 35/47/5
f 38/54/6 41/55/6 12/56/6
f 37/49/5 10/12/5 41/57/5
f 42/58/4 9/11/4 43/59/4
f 40/52/3 7/7/3 42/60/3
f 19/61/3 44/62/3 45/63/3
f 45/64/4 46/65/4 2/66/4
f 22/67/5 47/68/5 15/69/5
f 46/70/5 48/71/5 3/72/5
f 49/73/3 44/62/3 19/61/3
f 50/74/3 51/75/3 21/76/3
f 52/77/5 53/78/5 47/68/5
f 3/72/5 48/71/5 54/79/5
f 55/80/3 49/73/3 28/81/3
f 50/82/6 15/17/6 56/83/6
f 57/84/6 58/85/6 41/55/6
f 59/86/3 40/52/3 60/87/3
f 60/88/4 43/59/4 61/89/4
f 62/90/5 37/49/5 58/91/5
f 43/92/5 35/47/5 63/93/5
f 34/46/3 40/52/3 59/86/3
f 57/94/3 39/51/3 64/95/3
f 65/96/10 66/97/10 37/98/10
f 63/93/5 35/47/5 67/99/5
f 68/100/11 34/101/11 69/102/11
f 55/103/12 70/104/12 69/102/12
f 48/71/5 63/93/5 71/105/5
f 53/106/13 65/96/13 62/107/13
f 72/108/3 64/95/3 51/75/3
f 69/109/3 59/86/3 44/62/3
f 61/110/5 63/93/5 48/71/5
f 47/68/5 62/90/5 56/111/5
f 73/112/4 61/89/4 46/65/4
f 44/62/3 59/86/3 73/113/3
f 72/114/6 56/83/6 58/85/6
f 71/115/14 74/116/14 75/117/14
f 76/118/15 70/119/15 55/120/15
f 77/121/3 68/122/3 70/123/3
f 71/115/16 67/124/16 78/125/16
f 79/126/3 55/80/3 80/127/3
f 20/128/5 54/79/5 75/129/5
f 67/99/5 36/48/5 81/130/5
f 82/131/17 33/132/17 68/133/17
f 83/134/3 31/43/3 33/45/3
f 83/135/9 27/136/9 30/41/7
f 84/137/1 80/138/1 29/40/1
f 36/48/5 18/38/5 30/139/5
f 84/137/1 52/140/1 22/28/1
f 11/31/9 27/136/9 83/135/9
f 23/34/3 83/134/3 82/141/3
f 39/51/3 25/35/3 82/141/3
f 51/75/3 79/126/3 84/142/3
f 39/143/18 77/97/18 76/96/19
f 64/144/20 76/96/20 79/145/20
f 75/146/21 74/147/21 65/148/21
f 74/149/5 78/150/5 66/151/5
f 29/152/5 75/129/5 53/78/5
f 78/153/22 81/154/22 26/155/22
f 81/130/5 30/139/5 27/37/5
f 19/25/1 1/1/1 3/3/1
f 8/10/2 4/4/2 6/6/2
f 42/60/3 7/7/3 8/9/3
f 42/58/4 8/10/4 9/11/4
f 41/57/5 10/12/5 12/14/5
f 50/82/6 13/15/6 15/17/6
f 9/53/5 6/18/5 16/20/5
f 32/44/3 17/21/3 7/7/3
f 17/42/8 18/22/7 4/24/8
f 28/39/1 19/25/1 20/26/1
f 13/4/1 21/27/1 14/29/1
f 24/156/8 12/30/8 23/32/9
f 38/50/3 24/33/3 25/35/3
f 10/12/5 26/36/5 11/13/5
f 36/48/5 16/20/5 18/38/5
f 80/138/1 28/39/1 29/40/1
f 31/157/8 30/41/7 17/42/8
f 33/45/3 31/43/3 32/44/3
f 68/133/23 33/132/23 34/158/23
f 67/99/5 35/47/5 36/48/5
f 66/97/24 26/159/24 37/98/24
f 57/94/3 38/50/3 39/51/3
f 34/46/3 32/44/3 40/52/3
f 43/92/5 9/53/5 35/47/5
f 24/160/6 38/54/6 12/56/6
f 58/91/5 37/49/5 41/57/5
f 60/88/4 42/58/4 43/59/4
f 60/87/3 40/52/3 42/60/3
f 1/161/3 19/61/3 45/63/3
f 1/162/4 45/64/4 2/66/4
f 14/163/5 22/67/5 15/69/5
f 2/164/5 46/70/5 3/72/5
f 28/81/3 49/73/3 19/61/3
f 13/165/3 50/74/3 21/76/3
f 22/67/5 52/77/5 47/68/5
f 20/128/5 3/72/5 54/79/5
f 80/127/3 55/80/3 28/81/3
f 72/114/6 50/82/6 56/83/6
f 38/54/6 57/84/6 41/55/6
f 73/113/3 59/86/3 60/87/3
f 73/112/4 60/88/4 61/89/4
f 56/111/5 62/90/5 58/91/5
f 61/110/5 43/92/5 63/93/5
f 69/109/3 34/46/3 59/86/3
f 72/108/3 57/94/3 64/95/3
f 62/107/10 65/96/10 37/98/10
f 71/105/5 63/93/5 67/99/5
f 70/104/11 68/100/11 69/102/11
f 49/73/3 55/80/3 69/109/3
f 54/79/5 48/71/5 71/105/5
f 47/68/5 53/78/5 62/90/5
f 50/74/3 72/108/3 51/75/3
f 49/73/3 69/109/3 44/62/3
f 46/70/5 61/110/5 48/71/5
f 15/69/5 47/68/5 56/111/5
f 45/64/4 73/112/4 46/65/4
f 45/63/3 44/62/3 73/113/3
f 57/84/6 72/114/6 58/85/6
f 54/79/5 71/105/5 75/129/5
f 79/166/25 76/118/25 55/120/25
f 76/167/3 77/121/3 70/123/3
f 74/116/16 71/115/16 78/125/16
f 84/142/3 79/126/3 80/127/3
f 29/152/5 20/128/5 75/129/5
f 78/125/26 67/124/26 81/168/26
f 77/169/27 82/131/27 68/133/27
f 82/141/3 83/134/3 33/45/3
f 31/157/8 83/135/9 30/41/7
f 52/140/1 84/137/1 29/40/1
f 81/130/5 36/48/5 30/139/5
f 21/27/1 84/137/1 22/28/1
f 23/32/9 11/31/9 83/135/9
f 25/35/3 23/34/3 82/141/3
f 77/97/28 39/143/28 82/170/28
f 21/76/3 51/75/3 84/142/3
f 64/144/19 39/143/18 76/96/19
f 51/75/3 64/95/3 79/126/3
f 53/171/29 75/146/29 65/148/29
f 65/170/5 74/149/5 66/151/5
f 52/77/5 29/152/5 53/78/5
f 66/172/30 78/153/30 26/155/30
f 26/36/5 81/130/5 27/37/5
